<?xml version="1.0" encoding="utf-8"?>
<!-- Generator: Adobe Illustrator 16.0.3, SVG Export Plug-In . SVG Version: 6.00 Build 0)  -->
<!DOCTYPE svg PUBLIC "-//W3C//DTD SVG 1.1//EN" "http://www.w3.org/Graphics/SVG/1.1/DTD/svg11.dtd">
<svg version="1.1" id="Capa_1" xmlns="http://www.w3.org/2000/svg" xmlns:xlink="http://www.w3.org/1999/xlink" x="0px" y="0px"
	 width="34px" height="37px" viewBox="0 0 34 37" enable-background="new 0 0 34 37" xml:space="preserve">
<path d="M25.152,15.661c-0.933,1.212-1.272,1.768-1.721,2.219c-2.906,2.933-5.842,5.839-8.76,8.761
	c-1.447,1.449-3.586,2.025-4.816,0.77c-1.205-1.23-0.661-3.365,0.814-4.82c2.822-2.783,5.583-5.631,8.423-8.396
	c0.731-0.713,1.356-2.075,2.804-0.872C22.914,14.167,24.049,14.875,25.152,15.661z"/>
<path d="M17.73,13.249c-1.945,0.585-3.176-2.081-5.074,0.094c-1.729,1.981,0.595,2.874,0.451,4.441
	c-2.398,0.319-3.758-1.048-3.649-2.906c0.143-2.451,2.286-4.074,4.346-4.878C15.831,9.208,16.986,10.909,17.73,13.249z"/>
<path d="M23.613,19.439c2.766,0.855,4.395,1.968,3.697,4.051c-0.674,1.997-2.355,3.785-4.427,4.314
	c-2.028,0.52-3.131-1.076-3.664-3.069c1.613-1.447,2.834,1.997,4.757-0.089C25.791,22.678,23.801,21.525,23.613,19.439z"/>
<path d="M28.455,11.816c-0.377,1.224-0.727,2.926-2.301,2.472c-1.471-0.425-3.006-1.759-3.176-3.377
	c-0.154-1.476,1.424-2.078,2.771-2.006C27.436,8.996,28.293,10.125,28.455,11.816z"/>
</svg>
