<?xml version="1.0" encoding="utf-8"?>
<!-- Generator: Adobe Illustrator 16.0.3, SVG Export Plug-In . SVG Version: 6.00 Build 0)  -->
<!DOCTYPE svg PUBLIC "-//W3C//DTD SVG 1.1//EN" "http://www.w3.org/Graphics/SVG/1.1/DTD/svg11.dtd">
<svg version="1.1" id="Capa_1" xmlns="http://www.w3.org/2000/svg" xmlns:xlink="http://www.w3.org/1999/xlink" x="0px" y="0px"
	 width="40px" height="31px" viewBox="0 0 40 31" enable-background="new 0 0 40 31" xml:space="preserve">
<path d="M8.566,26.948c1.781-4.936,3.458-9.907,4.574-15.039c0.393-1.807,1.148-2.521,3.044-2.414
	c1.41,0.079,2.844-0.398,4.275-0.536c1.31-0.126,2.433-1.947,3.631-1.016c2.02,1.569,3.727,3.549,5.507,5.411
	c0.522,0.548,0.026,1.117-0.265,1.67c-0.926,1.766-1.451,3.731-1.317,5.657c0.168,2.425-0.731,3.247-3.035,3.827
	c-4.875,1.229-9.636,2.909-14.443,4.404c-1.802-1.15-0.037-1.817,0.474-2.344c2.825-2.908,5.614-5.859,8.633-8.573
	c0.648-0.54,1.848-0.501,1.848-1.946c-1.41-0.206-1.466,1.068-1.982,1.762c-2.718,3.029-5.677,5.822-8.583,8.662
	C10.375,27.012,9.725,28.756,8.566,26.948z"/>
<path fill="#030303" d="M27.452,1.539c0.305,0.276,0.762,0.657,1.182,1.075c2.047,2.04,4.121,4.054,6.099,6.161
	c0.486,0.519,2.082,1.185,0.677,2.039c-1.396,0.85-2.632,3.272-4.58,1.838c-2.218-1.635-4.027-3.834-5.955-5.847
	C24.124,6.023,26.07,1.722,27.452,1.539z"/>
<path fill="#E1E1E1" d="M8.566,26.948c1.096,1.063,1.309-0.36,1.698-0.727c3.019-2.834,5.95-5.758,8.91-8.654
	c0.4,0.096,0.648,0.342,0.746,0.741c-2.882,2.947-5.792,5.867-8.612,8.872c-0.381,0.405-1.792,0.616-0.771,1.733
	c-0.742,0.903-1.447,0.561-2.066-0.118C7.912,28.187,7.811,27.526,8.566,26.948z"/>
<path fill="#E2E2E2" d="M19.921,18.31c-0.248-0.246-0.498-0.494-0.746-0.74c0.096-0.592,0.076-1.233,0.313-1.763
	c0.345-0.771,0.978-1.308,1.921-1.046c0.604,0.169,1.053,0.58,1.23,1.214c0.261,0.935-0.174,1.582-0.975,1.937
	C21.13,18.147,20.507,18.184,19.921,18.31z"/>
</svg>
