<?xml version="1.0" encoding="utf-8"?>
<!-- Generator: Adobe Illustrator 16.0.3, SVG Export Plug-In . SVG Version: 6.00 Build 0)  -->
<!DOCTYPE svg PUBLIC "-//W3C//DTD SVG 1.1//EN" "http://www.w3.org/Graphics/SVG/1.1/DTD/svg11.dtd">
<svg version="1.1" id="Capa_1" xmlns="http://www.w3.org/2000/svg" xmlns:xlink="http://www.w3.org/1999/xlink" x="0px" y="0px"
	 width="46px" height="31px" viewBox="0 0 46 31" enable-background="new 0 0 46 31" xml:space="preserve">
<g>
	<path fill="#040404" d="M22.924,1.699c7.656-0.035,13.912,6.218,13.877,13.873C36.768,23.1,30.6,29.267,23.071,29.301
		c-7.655,0.035-13.907-6.219-13.872-13.879C9.233,7.875,15.377,1.733,22.924,1.699z"/>
	<path fill="#FDFDFD" d="M28.983,15.379c0.067,3.306-2.711,6.125-6.017,6.106c-3.189-0.019-5.883-2.676-5.953-5.87
		c-0.069-3.311,2.699-6.121,6.013-6.103C26.221,9.529,28.918,12.186,28.983,15.379z"/>
	<path fill="#FBFBFB" d="M14.658,6.396c0.771-1.407,2.192-1.929,3.536-2.5c3.927-1.672,4.474-1.222,4.253,2.965
		C22.387,8,21.94,8.335,21.012,8.657c-0.914,0.318-1.744,0.879-2.61,1.333C16.459,9.517,15.32,8.205,14.658,6.396z"/>
	<path fill="#FBFBFB" d="M27.605,9.989c-0.49-0.329-0.955-0.891-1.477-0.949c-3.598-0.406-2.351-3.115-2.518-5.144
		c-0.091-1.104,0.661-1.039,1.361-0.858c2.385,0.613,4.795,1.198,6.369,3.355C30.683,8.2,29.547,9.512,27.605,9.989z"/>
	<path fill="#FBFBFB" d="M17.492,10.902c-0.361,0.585-0.791,1.139-1.07,1.76c-0.838,1.859-3.399,2.898-5.338,2.242
		c-0.887-0.3-0.664-0.882-0.539-1.384c0.6-2.386,1.187-4.796,3.351-6.364C15.658,7.862,16.979,8.997,17.492,10.902z"/>
	<path fill="#FBFBFB" d="M13.896,23.842c-1.397-0.779-1.927-2.193-2.499-3.539c-1.67-3.928-1.221-4.473,2.969-4.25
		c1.143,0.062,1.471,0.519,1.797,1.438c0.321,0.913,0.877,1.744,1.331,2.61C17.012,22.041,15.705,23.183,13.896,23.842z"/>
	<path fill="#FBFBFB" d="M18.399,21.006c0.586,0.358,1.144,0.783,1.765,1.065c1.864,0.854,2.891,3.39,2.24,5.334
		c-0.296,0.89-0.869,0.67-1.375,0.544c-2.388-0.595-4.788-1.197-6.371-3.34C15.357,22.84,16.498,21.528,18.399,21.006z"/>
	<path fill="#FBFBFB" d="M32.111,7.159c1.385,0.791,1.918,2.201,2.49,3.545c1.666,3.918,1.215,4.467-2.971,4.243
		c-1.143-0.063-1.472-0.52-1.795-1.438c-0.322-0.913-0.877-1.744-1.328-2.61C29.029,8.997,30.34,7.855,32.111,7.159z"/>
	<path fill="#FBFBFB" d="M28.508,20.111c0.358-0.586,0.781-1.145,1.063-1.766c0.853-1.879,3.354-2.896,5.323-2.252
		c0.892,0.291,0.682,0.863,0.555,1.371c-0.598,2.387-1.183,4.797-3.337,6.375C30.297,23.191,28.998,22.045,28.508,20.111z"/>
	<path fill="#FBFBFB" d="M31.346,24.605c-0.795,1.383-2.201,1.922-3.547,2.494c-3.922,1.667-4.472,1.214-4.246-2.973
		c0.063-1.146,0.527-1.469,1.441-1.795c0.913-0.326,1.744-0.875,2.611-1.328C29.504,21.53,30.642,22.842,31.346,24.605z"/>
	<path fill="#1E1E1E" d="M17.492,10.902c-1.199-1.249-2.398-2.498-3.597-3.746c0.254-0.253,0.509-0.506,0.763-0.76
		c1.248,1.198,2.496,2.396,3.744,3.595C18.099,10.295,17.795,10.6,17.492,10.902z"/>
	<path fill="#1F1F1F" d="M32.111,7.159c-1.201,1.246-2.402,2.492-3.604,3.739c-0.301-0.303-0.603-0.606-0.902-0.909
		c1.246-1.199,2.492-2.397,3.738-3.596C31.6,6.648,31.855,6.904,32.111,7.159z"/>
	<path fill="#1E1E1E" d="M18.399,21.006c-1.247,1.201-2.494,2.402-3.741,3.604c-0.254-0.257-0.508-0.513-0.763-0.769
		c1.198-1.246,2.399-2.492,3.598-3.739C17.795,20.404,18.098,20.705,18.399,21.006z"/>
	<path fill="#1F1F1F" d="M31.346,24.605c-1.247-1.199-2.493-2.4-3.739-3.602c0.301-0.297,0.601-0.596,0.901-0.894
		c1.201,1.243,2.404,2.485,3.604,3.729C31.857,24.096,31.602,24.351,31.346,24.605z"/>
</g>
</svg>
