<?xml version="1.0" encoding="utf-8"?>
<!-- Generator: Adobe Illustrator 16.0.3, SVG Export Plug-In . SVG Version: 6.00 Build 0)  -->
<!DOCTYPE svg PUBLIC "-//W3C//DTD SVG 1.1//EN" "http://www.w3.org/Graphics/SVG/1.1/DTD/svg11.dtd">
<svg version="1.1" id="Capa_1" xmlns="http://www.w3.org/2000/svg" xmlns:xlink="http://www.w3.org/1999/xlink" x="0px" y="0px"
	 width="328px" height="54px" viewBox="0 0 328 54" enable-background="new 0 0 328 54" xml:space="preserve">
<g>
	<path fill="#FFFFFF" d="M16.297,12.972v2.916H3.599v8.785h10.281v2.806H3.599v9.027h12.698v2.914H0V12.972H16.297z"/>
	<path fill="#FFFFFF" d="M34.993,17.106c-0.11,0.185-0.228,0.323-0.351,0.416c-0.124,0.092-0.283,0.138-0.479,0.138
		c-0.209,0-0.453-0.104-0.729-0.314c-0.276-0.209-0.626-0.439-1.052-0.691c-0.425-0.253-0.934-0.483-1.531-0.693
		c-0.597-0.209-1.319-0.313-2.169-0.313c-0.8,0-1.508,0.108-2.123,0.323c-0.615,0.216-1.129,0.508-1.541,0.877
		c-0.413,0.37-0.723,0.802-0.933,1.301c-0.209,0.498-0.313,1.036-0.313,1.615c0,0.738,0.182,1.35,0.544,1.836
		c0.363,0.486,0.843,0.902,1.44,1.245c0.597,0.346,1.273,0.644,2.03,0.896c0.756,0.252,1.532,0.514,2.326,0.784
		c0.794,0.271,1.568,0.575,2.325,0.914c0.757,0.338,1.433,0.766,2.031,1.283c0.597,0.516,1.076,1.15,1.439,1.901
		c0.362,0.75,0.544,1.674,0.544,2.769c0,1.156-0.197,2.242-0.591,3.257c-0.394,1.016-0.968,1.898-1.726,2.649
		c-0.756,0.751-1.685,1.341-2.786,1.772c-1.102,0.429-2.354,0.645-3.756,0.645c-1.71,0-3.27-0.31-4.678-0.932
		c-1.41-0.62-2.612-1.462-3.609-2.52l1.034-1.697c0.099-0.137,0.218-0.25,0.36-0.343c0.142-0.091,0.298-0.137,0.471-0.137
		c0.258,0,0.553,0.137,0.886,0.414c0.332,0.276,0.748,0.581,1.246,0.914c0.498,0.332,1.101,0.637,1.808,0.913
		c0.708,0.276,1.572,0.416,2.594,0.416c0.849,0,1.606-0.117,2.27-0.352c0.664-0.233,1.228-0.563,1.688-0.986
		c0.462-0.425,0.816-0.933,1.062-1.523c0.246-0.589,0.369-1.248,0.369-1.975c0-0.799-0.182-1.456-0.544-1.966
		c-0.362-0.511-0.839-0.938-1.431-1.283c-0.59-0.343-1.264-0.637-2.021-0.877c-0.756-0.238-1.531-0.486-2.325-0.738
		c-0.794-0.252-1.569-0.545-2.326-0.876c-0.757-0.332-1.431-0.763-2.021-1.292c-0.59-0.529-1.068-1.191-1.43-1.985
		c-0.364-0.793-0.545-1.775-0.545-2.944c0-0.935,0.181-1.839,0.545-2.713c0.362-0.873,0.888-1.648,1.578-2.325
		c0.688-0.676,1.542-1.217,2.556-1.624c1.015-0.405,2.181-0.609,3.498-0.609c1.477,0,2.825,0.235,4.042,0.702
		s2.282,1.144,3.192,2.03L34.993,17.106z"/>
	<path fill="#FFFFFF" d="M59.024,12.972v3.008h-8.546V39.42h-3.581V15.98h-8.582v-3.008H59.024z"/>
	<path fill="#FFFFFF" d="M73.07,36.579c1.094,0,2.072-0.186,2.934-0.555c0.861-0.37,1.59-0.887,2.187-1.55
		c0.597-0.664,1.052-1.458,1.366-2.382c0.313-0.922,0.47-1.938,0.47-3.046V12.972h3.563v16.075c0,1.526-0.244,2.941-0.729,4.248
		c-0.487,1.303-1.182,2.433-2.085,3.385c-0.905,0.954-2.009,1.702-3.314,2.243c-1.304,0.542-2.768,0.812-4.392,0.812
		c-1.625,0-3.089-0.27-4.394-0.812c-1.304-0.541-2.412-1.289-3.322-2.243c-0.912-0.952-1.609-2.082-2.095-3.385
		c-0.486-1.307-0.729-2.722-0.729-4.248V12.972h3.562v16.056c0,1.109,0.157,2.123,0.471,3.048c0.313,0.922,0.769,1.716,1.365,2.38
		c0.596,0.663,1.329,1.185,2.196,1.561C70.993,36.392,71.974,36.579,73.07,36.579z"/>
	<path fill="#FFFFFF" d="M112.659,26.206c0,1.982-0.314,3.784-0.94,5.409c-0.628,1.624-1.514,3.014-2.659,4.17
		c-1.144,1.157-2.517,2.051-4.116,2.686c-1.599,0.635-3.371,0.95-5.314,0.95h-9.894V12.972h9.894c1.944,0,3.716,0.316,5.314,0.951
		c1.6,0.634,2.972,1.532,4.116,2.694c1.145,1.163,2.03,2.557,2.659,4.181C112.345,22.422,112.659,24.224,112.659,26.206z
		 M108.985,26.206c0-1.625-0.221-3.076-0.664-4.355c-0.442-1.28-1.07-2.362-1.882-3.249c-0.813-0.886-1.797-1.562-2.954-2.029
		c-1.156-0.468-2.442-0.701-3.856-0.701h-6.295v20.653h6.295c1.414,0,2.7-0.235,3.856-0.702c1.157-0.467,2.141-1.141,2.954-2.021
		c0.812-0.879,1.44-1.958,1.882-3.237C108.765,29.282,108.985,27.83,108.985,26.206z"/>
	<path fill="#FFFFFF" d="M121.775,39.42h-3.579V12.972h3.579V39.42z"/>
	<path fill="#FFFFFF" d="M153.429,26.206c0,1.982-0.313,3.799-0.941,5.455c-0.627,1.654-1.513,3.078-2.657,4.271
		c-1.146,1.194-2.521,2.12-4.126,2.779c-1.605,0.657-3.38,0.987-5.324,0.987c-1.945,0-3.718-0.33-5.315-0.987
		c-1.6-0.659-2.972-1.585-4.117-2.779c-1.144-1.193-2.03-2.617-2.657-4.271c-0.628-1.655-0.942-3.473-0.942-5.455
		c0-1.981,0.314-3.798,0.942-5.454c0.627-1.654,1.513-3.081,2.657-4.282c1.145-1.2,2.517-2.132,4.117-2.796
		c1.598-0.664,3.371-0.997,5.315-0.997c1.944,0,3.718,0.333,5.324,0.997c1.605,0.665,2.981,1.597,4.126,2.796
		c1.144,1.201,2.029,2.627,2.657,4.282C153.115,22.407,153.429,24.224,153.429,26.206z M149.756,26.206
		c0-1.625-0.223-3.082-0.665-4.374c-0.444-1.292-1.071-2.385-1.883-3.276c-0.812-0.892-1.797-1.579-2.954-2.058
		c-1.156-0.48-2.448-0.72-3.875-0.72c-1.416,0-2.702,0.24-3.858,0.72c-1.157,0.479-2.144,1.166-2.962,2.058
		c-0.818,0.892-1.449,1.984-1.892,3.276c-0.443,1.292-0.665,2.749-0.665,4.374c0,1.624,0.222,3.08,0.665,4.365
		c0.443,1.286,1.073,2.375,1.892,3.267c0.818,0.893,1.806,1.576,2.962,2.05c1.156,0.473,2.442,0.71,3.858,0.71
		c1.427,0,2.719-0.237,3.875-0.71c1.157-0.474,2.142-1.157,2.954-2.05c0.812-0.892,1.439-1.98,1.883-3.267
		C149.534,29.285,149.756,27.83,149.756,26.206z"/>
	<path fill="#FFFFFF" d="M174.745,35.654c0.751,0,1.406-0.056,1.967-0.175c0.56-0.116,1.045-0.268,1.458-0.452
		c0.412-0.184,0.766-0.378,1.061-0.579c0.296-0.205,0.555-0.399,0.775-0.583c0.222-0.185,0.419-0.336,0.591-0.453
		c0.173-0.115,0.345-0.174,0.517-0.174c0.148,0,0.27,0.03,0.369,0.091c0.1,0.063,0.179,0.124,0.24,0.186l1.681,2.086
		c-1.158,1.327-2.517,2.347-4.08,3.054c-1.563,0.707-3.359,1.062-5.39,1.062c-1.637,0-3.095-0.292-4.375-0.878
		c-1.279-0.581-2.361-1.392-3.248-2.426c-0.885-1.033-1.559-2.258-2.02-3.673c-0.462-1.415-0.694-2.959-0.694-4.632
		c0-1.539,0.167-2.994,0.5-4.366c0.331-1.372,0.805-2.639,1.421-3.802c0.615-1.164,1.353-2.206,2.215-3.128
		c0.861-0.924,1.815-1.71,2.861-2.363c1.045-0.652,2.174-1.15,3.387-1.495c1.211-0.344,2.476-0.516,3.792-0.516
		c0.972,0,1.857,0.089,2.659,0.267c0.799,0.178,1.523,0.427,2.178,0.748c0.651,0.32,1.236,0.704,1.753,1.153
		s0.982,0.951,1.401,1.504l-1.661,1.993c-0.122,0.148-0.268,0.277-0.435,0.389c-0.163,0.11-0.37,0.166-0.618,0.166
		c-0.271,0-0.526-0.111-0.773-0.332c-0.247-0.223-0.556-0.464-0.933-0.729c-0.375-0.265-0.862-0.508-1.457-0.73
		c-0.598-0.221-1.383-0.332-2.354-0.332c-1.28,0-2.466,0.261-3.562,0.784c-1.095,0.523-2.05,1.271-2.861,2.243
		s-1.448,2.144-1.909,3.516c-0.462,1.372-0.693,2.914-0.693,4.625c0,1.242,0.158,2.356,0.472,3.338
		c0.313,0.986,0.747,1.82,1.301,2.502c0.554,0.683,1.211,1.207,1.976,1.569C173.018,35.475,173.849,35.654,174.745,35.654z"/>
	<path fill="#FFFFFF" d="M191.984,28.901l-1.291,10.519h-4.764l3.267-26.688h7.586c1.539,0,2.855,0.163,3.95,0.489
		c1.094,0.326,1.993,0.782,2.694,1.366s1.217,1.283,1.55,2.094c0.334,0.813,0.498,1.704,0.498,2.677
		c0,1.034-0.143,2.002-0.433,2.906c-0.29,0.904-0.705,1.726-1.246,2.464c-0.54,0.738-1.207,1.384-1.993,1.938
		c-0.787,0.553-1.679,0.984-2.676,1.292c0.283,0.172,0.541,0.38,0.773,0.627c0.234,0.246,0.438,0.542,0.609,0.886l4.763,9.947
		h-4.301c-0.404,0-0.747-0.082-1.024-0.249c-0.275-0.166-0.482-0.401-0.617-0.709l-3.914-8.656c-0.147-0.32-0.328-0.551-0.544-0.693
		c-0.216-0.142-0.551-0.211-1.005-0.211H191.984z M193.534,16.424l-1.127,9.062h2.77c0.96,0,1.787-0.138,2.482-0.415
		c0.695-0.276,1.267-0.658,1.717-1.144c0.449-0.486,0.784-1.056,1.005-1.707c0.222-0.652,0.334-1.354,0.334-2.104
		c0-1.157-0.359-2.061-1.071-2.713c-0.714-0.652-1.814-0.978-3.304-0.978H193.534z"/>
	<path fill="#FFFFFF" d="M226.957,12.732l-0.478,3.821h-10.743l-0.924,7.585h8.436l-0.461,3.674h-8.436l-0.959,7.788h10.778
		l-0.479,3.819h-15.578l3.285-26.688H226.957z"/>
	<path fill="#FFFFFF" d="M249.051,39.42h-3.709c-0.418,0-0.75-0.098-0.997-0.294c-0.247-0.197-0.399-0.463-0.46-0.794l-1.108-5.574
		h-9.949l-2.473,5.574c-0.136,0.284-0.357,0.535-0.664,0.757c-0.309,0.222-0.652,0.331-1.033,0.331h-3.765l12.899-26.688h4.891
		L249.051,39.42z M234.324,29.381h7.769l-1.809-9.137c-0.1-0.443-0.197-0.91-0.296-1.402c-0.098-0.492-0.191-1.046-0.275-1.661
		c-0.234,0.615-0.465,1.185-0.692,1.708c-0.228,0.522-0.44,0.981-0.637,1.375L234.324,29.381z"/>
	<path fill="#FFFFFF" d="M269.188,12.732l-0.498,3.932h-7.31l-2.807,22.756h-4.76l2.786-22.756h-7.327l0.479-3.932H269.188z"/>
	<path fill="#FFFFFF" d="M274.06,39.42h-4.817l3.268-26.688h4.817L274.06,39.42z"/>
	<path fill="#FFFFFF" d="M280.354,12.732h3.839c0.419,0,0.75,0.102,0.996,0.304c0.246,0.204,0.401,0.466,0.462,0.785l3.563,16.63
		c0.123,0.579,0.239,1.159,0.351,1.743c0.11,0.586,0.216,1.208,0.314,1.874c0.209-0.666,0.441-1.301,0.701-1.91
		c0.258-0.61,0.509-1.178,0.757-1.707l7.584-16.63c0.124-0.269,0.342-0.519,0.655-0.747s0.67-0.342,1.062-0.342h3.877L291.336,39.42
		h-4.357L280.354,12.732z"/>
	<path fill="#FFFFFF" d="M328.358,24.286c0,1.477-0.164,2.882-0.489,4.218c-0.325,1.335-0.793,2.574-1.401,3.72
		c-0.609,1.144-1.341,2.178-2.197,3.1c-0.855,0.923-1.815,1.711-2.879,2.361c-1.065,0.653-2.219,1.153-3.462,1.507
		c-1.242,0.35-2.546,0.524-3.913,0.524c-1.696,0-3.222-0.302-4.576-0.904s-2.507-1.434-3.46-2.491
		c-0.954-1.059-1.684-2.307-2.188-3.748c-0.505-1.438-0.756-3.001-0.756-4.686c0-1.478,0.162-2.883,0.489-4.218
		c0.326-1.335,0.794-2.575,1.402-3.719c0.607-1.144,1.34-2.178,2.194-3.101c0.855-0.922,1.815-1.712,2.88-2.371
		c1.064-0.658,2.217-1.163,3.462-1.514c1.241-0.352,2.553-0.526,3.931-0.526c1.698,0,3.223,0.301,4.576,0.904
		c1.354,0.603,2.504,1.434,3.452,2.492c0.947,1.057,1.672,2.31,2.178,3.755C328.106,21.035,328.358,22.601,328.358,24.286z
		 M323.448,24.397c0-1.206-0.149-2.301-0.45-3.286c-0.303-0.984-0.739-1.827-1.313-2.528c-0.57-0.701-1.27-1.242-2.095-1.624
		c-0.823-0.381-1.753-0.573-2.786-0.573c-1.33,0-2.537,0.271-3.627,0.813c-1.088,0.542-2.021,1.311-2.795,2.307
		c-0.775,0.997-1.377,2.197-1.8,3.6c-0.425,1.402-0.638,2.959-0.638,4.669c0,1.206,0.147,2.3,0.443,3.285
		c0.295,0.983,0.726,1.825,1.292,2.52c0.566,0.696,1.256,1.231,2.076,1.605c0.817,0.376,1.751,0.563,2.797,0.563
		c1.34,0,2.56-0.271,3.655-0.812c1.094-0.541,2.027-1.305,2.804-2.29c0.775-0.983,1.375-2.174,1.8-3.571
		C323.235,27.68,323.448,26.119,323.448,24.397z"/>
</g>
</svg>
